<svg width="24" height="24" xmlns="http://www.w3.org/2000/svg">
  <rect x="5" y="0" width="1" height="1" fill="#3a2833"/>
  <rect x="6" y="0" width="1" height="1" fill="#3b2833"/>
  <rect x="7" y="0" width="1" height="1" fill="#3b2834"/>
  <rect x="8" y="0" width="1" height="1" fill="#3c2733"/>
  <rect x="9" y="0" width="1" height="1" fill="#3c2730"/>
  <rect x="10" y="0" width="1" height="1" fill="#3c2830"/>
  <rect x="11" y="0" width="1" height="1" fill="#3c282f"/>
  <rect x="4" y="1" width="1" height="1" fill="#a17c55"/>
  <rect x="5" y="1" width="1" height="1" fill="#ffca54"/>
  <rect x="6" y="1" width="1" height="1" fill="#ffc551"/>
  <rect x="7" y="1" width="1" height="1" fill="#fab957"/>
  <rect x="8" y="1" width="1" height="1" fill="#f1ae57"/>
  <rect x="9" y="1" width="1" height="1" fill="#f4af57"/>
  <rect x="10" y="1" width="1" height="1" fill="#f4af55"/>
  <rect x="11" y="1" width="1" height="1" fill="#f2ae53"/>
  <rect x="12" y="1" width="1" height="1" fill="#412730"/>
  <rect x="13" y="1" width="1" height="1" fill="#472430"/>
  <rect x="14" y="1" width="1" height="1" fill="#412730"/>
  <rect x="15" y="1" width="1" height="1" fill="#412730"/>
  <rect x="4" y="2" width="1" height="1" fill="#ce9c6f"/>
  <rect x="5" y="2" width="1" height="1" fill="#ffeeb1"/>
  <rect x="6" y="2" width="1" height="1" fill="#fff6b6"/>
  <rect x="7" y="2" width="1" height="1" fill="#ffc65f"/>
  <rect x="8" y="2" width="1" height="1" fill="#d28e4d"/>
  <rect x="9" y="2" width="1" height="1" fill="#afcec9"/>
  <rect x="10" y="2" width="1" height="1" fill="#accbc4"/>
  <rect x="11" y="2" width="1" height="1" fill="#d88b52"/>
  <rect x="12" y="2" width="1" height="1" fill="#edb260"/>
  <rect x="13" y="2" width="1" height="1" fill="#ecb052"/>
  <rect x="14" y="2" width="1" height="1" fill="#efaf4f"/>
  <rect x="15" y="2" width="1" height="1" fill="#efaf4e"/>
  <rect x="16" y="2" width="1" height="1" fill="#3c282f"/>
  <rect x="17" y="2" width="1" height="1" fill="#3e272f"/>
  <rect x="18" y="2" width="1" height="1" fill="#42252f"/>
  <rect x="4" y="3" width="1" height="1" fill="#ce9c72"/>
  <rect x="5" y="3" width="1" height="1" fill="#ffea71"/>
  <rect x="6" y="3" width="1" height="1" fill="#fff6b6"/>
  <rect x="7" y="3" width="1" height="1" fill="#fff6b6"/>
  <rect x="8" y="3" width="1" height="1" fill="#fff6b1"/>
  <rect x="9" y="3" width="1" height="1" fill="#feca52"/>
  <rect x="10" y="3" width="1" height="1" fill="#d88b4f"/>
  <rect x="11" y="3" width="1" height="1" fill="#b0cbc7"/>
  <rect x="12" y="3" width="1" height="1" fill="#b1c7c5"/>
  <rect x="13" y="3" width="1" height="1" fill="#a27544"/>
  <rect x="14" y="3" width="1" height="1" fill="#d28d4a"/>
  <rect x="15" y="3" width="1" height="1" fill="#d28e46"/>
  <rect x="16" y="3" width="1" height="1" fill="#f0ac5a"/>
  <rect x="17" y="3" width="1" height="1" fill="#f0ad52"/>
  <rect x="18" y="3" width="1" height="1" fill="#f1ad51"/>
  <rect x="19" y="3" width="1" height="1" fill="#42262c"/>
  <rect x="20" y="3" width="1" height="1" fill="#39292f"/>
  <rect x="4" y="4" width="1" height="1" fill="#ce9c72"/>
  <rect x="5" y="4" width="1" height="1" fill="#ffe270"/>
  <rect x="6" y="4" width="1" height="1" fill="#fbe76f"/>
  <rect x="7" y="4" width="1" height="1" fill="#fbe86f"/>
  <rect x="8" y="4" width="1" height="1" fill="#ffecb1"/>
  <rect x="9" y="4" width="1" height="1" fill="#fef5b3"/>
  <rect x="10" y="4" width="1" height="1" fill="#d48c55"/>
  <rect x="11" y="4" width="1" height="1" fill="#a97241"/>
  <rect x="12" y="4" width="1" height="1" fill="#abcbcc"/>
  <rect x="13" y="4" width="1" height="1" fill="#c5e8e8"/>
  <rect x="14" y="4" width="1" height="1" fill="#c1eae5"/>
  <rect x="15" y="4" width="1" height="1" fill="#dd845a"/>
  <rect x="16" y="4" width="1" height="1" fill="#d48f52"/>
  <rect x="17" y="4" width="1" height="1" fill="#d48e52"/>
  <rect x="18" y="4" width="1" height="1" fill="#d38f4f"/>
  <rect x="19" y="4" width="1" height="1" fill="#e7b550"/>
  <rect x="20" y="4" width="1" height="1" fill="#462430"/>
  <rect x="4" y="5" width="1" height="1" fill="#ce9c72"/>
  <rect x="5" y="5" width="1" height="1" fill="#ffe270"/>
  <rect x="6" y="5" width="1" height="1" fill="#ffe46e"/>
  <rect x="7" y="5" width="1" height="1" fill="#ffe36d"/>
  <rect x="8" y="5" width="1" height="1" fill="#ffe778"/>
  <rect x="9" y="5" width="1" height="1" fill="#ffee7c"/>
  <rect x="10" y="5" width="1" height="1" fill="#ffedac"/>
  <rect x="11" y="5" width="1" height="1" fill="#ab6f48"/>
  <rect x="12" y="5" width="1" height="1" fill="#c7e7e8"/>
  <rect x="13" y="5" width="1" height="1" fill="#accacc"/>
  <rect x="14" y="5" width="1" height="1" fill="#afc9cc"/>
  <rect x="15" y="5" width="1" height="1" fill="#d5e1d7"/>
  <rect x="16" y="5" width="1" height="1" fill="#cfe8d4"/>
  <rect x="17" y="5" width="1" height="1" fill="#cf914f"/>
  <rect x="18" y="5" width="1" height="1" fill="#d58f4e"/>
  <rect x="19" y="5" width="1" height="1" fill="#ffe074"/>
  <rect x="20" y="5" width="1" height="1" fill="#40262f"/>
  <rect x="4" y="6" width="1" height="1" fill="#ce9c72"/>
  <rect x="5" y="6" width="1" height="1" fill="#ffe370"/>
  <rect x="6" y="6" width="1" height="1" fill="#ffe36d"/>
  <rect x="7" y="6" width="1" height="1" fill="#ffe36e"/>
  <rect x="8" y="6" width="1" height="1" fill="#ffe26f"/>
  <rect x="9" y="6" width="1" height="1" fill="#ffe26f"/>
  <rect x="10" y="6" width="1" height="1" fill="#fcfaf9"/>
  <rect x="11" y="6" width="1" height="1" fill="#aa724b"/>
  <rect x="12" y="6" width="1" height="1" fill="#aecacc"/>
  <rect x="13" y="6" width="1" height="1" fill="#c8e8e9"/>
  <rect x="14" y="6" width="1" height="1" fill="#b0cbc7"/>
  <rect x="15" y="6" width="1" height="1" fill="#aecacc"/>
  <rect x="16" y="6" width="1" height="1" fill="#feffff"/>
  <rect x="17" y="6" width="1" height="1" fill="#d58d4d"/>
  <rect x="18" y="6" width="1" height="1" fill="#d48d4e"/>
  <rect x="19" y="6" width="1" height="1" fill="#fde370"/>
  <rect x="20" y="6" width="1" height="1" fill="#3e272f"/>
  <rect x="4" y="7" width="1" height="1" fill="#ce9c71"/>
  <rect x="5" y="7" width="1" height="1" fill="#ffe470"/>
  <rect x="6" y="7" width="1" height="1" fill="#ffe36d"/>
  <rect x="7" y="7" width="1" height="1" fill="#ffe36d"/>
  <rect x="8" y="7" width="1" height="1" fill="#ffe26f"/>
  <rect x="9" y="7" width="1" height="1" fill="#ffe26f"/>
  <rect x="10" y="7" width="1" height="1" fill="#fff8f9"/>
  <rect x="11" y="7" width="1" height="1" fill="#aa7248"/>
  <rect x="12" y="7" width="1" height="1" fill="#94adb0"/>
  <rect x="13" y="7" width="1" height="1" fill="#c7e7e8"/>
  <rect x="14" y="7" width="1" height="1" fill="#feffff"/>
  <rect x="15" y="7" width="1" height="1" fill="#b3c7cc"/>
  <rect x="16" y="7" width="1" height="1" fill="#f5ffff"/>
  <rect x="17" y="7" width="1" height="1" fill="#d38e4e"/>
  <rect x="18" y="7" width="1" height="1" fill="#d48d4e"/>
  <rect x="19" y="7" width="1" height="1" fill="#feda68"/>
  <rect x="20" y="7" width="1" height="1" fill="#3e272f"/>
  <rect x="4" y="8" width="1" height="1" fill="#ce9c71"/>
  <rect x="5" y="8" width="1" height="1" fill="#ffe36d"/>
  <rect x="6" y="8" width="1" height="1" fill="#ffe46c"/>
  <rect x="7" y="8" width="1" height="1" fill="#ffe46d"/>
  <rect x="8" y="8" width="1" height="1" fill="#ffe270"/>
  <rect x="9" y="8" width="1" height="1" fill="#ffe572"/>
  <rect x="10" y="8" width="1" height="1" fill="#fdf8b7"/>
  <rect x="11" y="8" width="1" height="1" fill="#ae7248"/>
  <rect x="12" y="8" width="1" height="1" fill="#97adb1"/>
  <rect x="13" y="8" width="1" height="1" fill="#94aeb1"/>
  <rect x="14" y="8" width="1" height="1" fill="#fffeff"/>
  <rect x="15" y="8" width="1" height="1" fill="#95abaf"/>
  <rect x="16" y="8" width="1" height="1" fill="#cee4e4"/>
  <rect x="17" y="8" width="1" height="1" fill="#d38e4e"/>
  <rect x="18" y="8" width="1" height="1" fill="#d58d4d"/>
  <rect x="19" y="8" width="1" height="1" fill="#f5cb60"/>
  <rect x="20" y="8" width="1" height="1" fill="#3e272f"/>
  <rect x="4" y="9" width="1" height="1" fill="#ce9c70"/>
  <rect x="5" y="9" width="1" height="1" fill="#ffcc5e"/>
  <rect x="6" y="9" width="1" height="1" fill="#fee16a"/>
  <rect x="7" y="9" width="1" height="1" fill="#fde36c"/>
  <rect x="8" y="9" width="1" height="1" fill="#ffe26f"/>
  <rect x="9" y="9" width="1" height="1" fill="#ffe472"/>
  <rect x="10" y="9" width="1" height="1" fill="#fbe9ae"/>
  <rect x="11" y="9" width="1" height="1" fill="#ae7144"/>
  <rect x="12" y="9" width="1" height="1" fill="#96acb0"/>
  <rect x="13" y="9" width="1" height="1" fill="#96acb0"/>
  <rect x="14" y="9" width="1" height="1" fill="#fefcff"/>
  <rect x="15" y="9" width="1" height="1" fill="#97adb1"/>
  <rect x="16" y="9" width="1" height="1" fill="#c7e8e5"/>
  <rect x="17" y="9" width="1" height="1" fill="#d38d51"/>
  <rect x="18" y="9" width="1" height="1" fill="#d58d4d"/>
  <rect x="19" y="9" width="1" height="1" fill="#f4c15e"/>
  <rect x="20" y="9" width="1" height="1" fill="#3e272f"/>
  <rect x="4" y="10" width="1" height="1" fill="#cf9c70"/>
  <rect x="5" y="10" width="1" height="1" fill="#feca5b"/>
  <rect x="6" y="10" width="1" height="1" fill="#ffdb65"/>
  <rect x="7" y="10" width="1" height="1" fill="#fee16b"/>
  <rect x="8" y="10" width="1" height="1" fill="#ffe26c"/>
  <rect x="9" y="10" width="1" height="1" fill="#ffe06b"/>
  <rect x="10" y="10" width="1" height="1" fill="#ffdf6b"/>
  <rect x="11" y="10" width="1" height="1" fill="#ac7242"/>
  <rect x="12" y="10" width="1" height="1" fill="#96acb0"/>
  <rect x="13" y="10" width="1" height="1" fill="#96acb0"/>
  <rect x="14" y="10" width="1" height="1" fill="#cbe7ea"/>
  <rect x="15" y="10" width="1" height="1" fill="#96acb2"/>
  <rect x="16" y="10" width="1" height="1" fill="#c7e8e5"/>
  <rect x="17" y="10" width="1" height="1" fill="#d38d51"/>
  <rect x="18" y="10" width="1" height="1" fill="#d78c4d"/>
  <rect x="19" y="10" width="1" height="1" fill="#f3c25e"/>
  <rect x="20" y="10" width="1" height="1" fill="#3e272f"/>
  <rect x="4" y="11" width="1" height="1" fill="#d09b6f"/>
  <rect x="5" y="11" width="1" height="1" fill="#ffc95c"/>
  <rect x="6" y="11" width="1" height="1" fill="#ffd15f"/>
  <rect x="7" y="11" width="1" height="1" fill="#fddd68"/>
  <rect x="8" y="11" width="1" height="1" fill="#fde36d"/>
  <rect x="9" y="11" width="1" height="1" fill="#ffdd6a"/>
  <rect x="10" y="11" width="1" height="1" fill="#ffcf68"/>
  <rect x="11" y="11" width="1" height="1" fill="#ab7342"/>
  <rect x="12" y="11" width="1" height="1" fill="#96acb0"/>
  <rect x="13" y="11" width="1" height="1" fill="#95acb0"/>
  <rect x="14" y="11" width="1" height="1" fill="#cbe7ea"/>
  <rect x="15" y="11" width="1" height="1" fill="#96acb2"/>
  <rect x="16" y="11" width="1" height="1" fill="#c7e7e8"/>
  <rect x="17" y="11" width="1" height="1" fill="#d38d52"/>
  <rect x="18" y="11" width="1" height="1" fill="#d48d4d"/>
  <rect x="19" y="11" width="1" height="1" fill="#f3c25e"/>
  <rect x="20" y="11" width="1" height="1" fill="#3e272f"/>
  <rect x="4" y="12" width="1" height="1" fill="#d09c6d"/>
  <rect x="5" y="12" width="1" height="1" fill="#ffca59"/>
  <rect x="6" y="12" width="1" height="1" fill="#ffce5b"/>
  <rect x="7" y="12" width="1" height="1" fill="#ffd965"/>
  <rect x="8" y="12" width="1" height="1" fill="#fee26c"/>
  <rect x="9" y="12" width="1" height="1" fill="#ffde7b"/>
  <rect x="10" y="12" width="1" height="1" fill="#ce9542"/>
  <rect x="11" y="12" width="1" height="1" fill="#ae7142"/>
  <rect x="12" y="12" width="1" height="1" fill="#96acb0"/>
  <rect x="13" y="12" width="1" height="1" fill="#95acb0"/>
  <rect x="14" y="12" width="1" height="1" fill="#cbe6eb"/>
  <rect x="15" y="12" width="1" height="1" fill="#96acb2"/>
  <rect x="16" y="12" width="1" height="1" fill="#c7e7ea"/>
  <rect x="17" y="12" width="1" height="1" fill="#d38c55"/>
  <rect x="18" y="12" width="1" height="1" fill="#d38e4d"/>
  <rect x="19" y="12" width="1" height="1" fill="#efc35e"/>
  <rect x="20" y="12" width="1" height="1" fill="#3e272f"/>
  <rect x="4" y="13" width="1" height="1" fill="#d09c6c"/>
  <rect x="5" y="13" width="1" height="1" fill="#ffca57"/>
  <rect x="6" y="13" width="1" height="1" fill="#ffcb57"/>
  <rect x="7" y="13" width="1" height="1" fill="#ffcf5c"/>
  <rect x="8" y="13" width="1" height="1" fill="#ffdd68"/>
  <rect x="9" y="13" width="1" height="1" fill="#ffe16c"/>
  <rect x="10" y="13" width="1" height="1" fill="#ae723c"/>
  <rect x="11" y="13" width="1" height="1" fill="#9ea8aa"/>
  <rect x="12" y="13" width="1" height="1" fill="#96acb0"/>
  <rect x="13" y="13" width="1" height="1" fill="#96acb0"/>
  <rect x="14" y="13" width="1" height="1" fill="#cbe6eb"/>
  <rect x="15" y="13" width="1" height="1" fill="#96acb2"/>
  <rect x="16" y="13" width="1" height="1" fill="#c7e7ea"/>
  <rect x="17" y="13" width="1" height="1" fill="#d38c55"/>
  <rect x="18" y="13" width="1" height="1" fill="#d28e4d"/>
  <rect x="19" y="13" width="1" height="1" fill="#efc35e"/>
  <rect x="20" y="13" width="1" height="1" fill="#3e272f"/>
  <rect x="4" y="14" width="1" height="1" fill="#d09c6c"/>
  <rect x="5" y="14" width="1" height="1" fill="#ffca56"/>
  <rect x="6" y="14" width="1" height="1" fill="#ffcb54"/>
  <rect x="7" y="14" width="1" height="1" fill="#ffc957"/>
  <rect x="8" y="14" width="1" height="1" fill="#ffce5f"/>
  <rect x="9" y="14" width="1" height="1" fill="#fde06a"/>
  <rect x="10" y="14" width="1" height="1" fill="#ac7042"/>
  <rect x="11" y="14" width="1" height="1" fill="#96aaae"/>
  <rect x="12" y="14" width="1" height="1" fill="#96acb2"/>
  <rect x="13" y="14" width="1" height="1" fill="#96acb2"/>
  <rect x="14" y="14" width="1" height="1" fill="#c9e7eb"/>
  <rect x="15" y="14" width="1" height="1" fill="#95acb2"/>
  <rect x="16" y="14" width="1" height="1" fill="#c7e7ea"/>
  <rect x="17" y="14" width="1" height="1" fill="#d38c55"/>
  <rect x="18" y="14" width="1" height="1" fill="#d28e4d"/>
  <rect x="19" y="14" width="1" height="1" fill="#efc35e"/>
  <rect x="20" y="14" width="1" height="1" fill="#3e272f"/>
  <rect x="4" y="15" width="1" height="1" fill="#cf9d6a"/>
  <rect x="5" y="15" width="1" height="1" fill="#ffca53"/>
  <rect x="6" y="15" width="1" height="1" fill="#ffca56"/>
  <rect x="7" y="15" width="1" height="1" fill="#ffc957"/>
  <rect x="8" y="15" width="1" height="1" fill="#ffca56"/>
  <rect x="9" y="15" width="1" height="1" fill="#ffc959"/>
  <rect x="10" y="15" width="1" height="1" fill="#ad7042"/>
  <rect x="11" y="15" width="1" height="1" fill="#99aaaa"/>
  <rect x="12" y="15" width="1" height="1" fill="#96acb2"/>
  <rect x="13" y="15" width="1" height="1" fill="#96acb2"/>
  <rect x="14" y="15" width="1" height="1" fill="#c9e8e9"/>
  <rect x="15" y="15" width="1" height="1" fill="#94adb0"/>
  <rect x="16" y="15" width="1" height="1" fill="#c7e7e8"/>
  <rect x="17" y="15" width="1" height="1" fill="#d38d52"/>
  <rect x="18" y="15" width="1" height="1" fill="#d38e4d"/>
  <rect x="19" y="15" width="1" height="1" fill="#f0c35e"/>
  <rect x="20" y="15" width="1" height="1" fill="#3e272f"/>
  <rect x="4" y="16" width="1" height="1" fill="#cc9e6b"/>
  <rect x="5" y="16" width="1" height="1" fill="#ffcb51"/>
  <rect x="6" y="16" width="1" height="1" fill="#ffca56"/>
  <rect x="7" y="16" width="1" height="1" fill="#ffca56"/>
  <rect x="8" y="16" width="1" height="1" fill="#ffca56"/>
  <rect x="9" y="16" width="1" height="1" fill="#ffca56"/>
  <rect x="10" y="16" width="1" height="1" fill="#ad7042"/>
  <rect x="11" y="16" width="1" height="1" fill="#98aaab"/>
  <rect x="12" y="16" width="1" height="1" fill="#96acb2"/>
  <rect x="13" y="16" width="1" height="1" fill="#96acb1"/>
  <rect x="14" y="16" width="1" height="1" fill="#c9e8e9"/>
  <rect x="15" y="16" width="1" height="1" fill="#94adb0"/>
  <rect x="16" y="16" width="1" height="1" fill="#c7e7e8"/>
  <rect x="17" y="16" width="1" height="1" fill="#d38d52"/>
  <rect x="18" y="16" width="1" height="1" fill="#d58d4d"/>
  <rect x="19" y="16" width="1" height="1" fill="#f3c25e"/>
  <rect x="20" y="16" width="1" height="1" fill="#3e272f"/>
  <rect x="4" y="17" width="1" height="1" fill="#a1795b"/>
  <rect x="5" y="17" width="1" height="1" fill="#facd54"/>
  <rect x="6" y="17" width="1" height="1" fill="#ffca56"/>
  <rect x="7" y="17" width="1" height="1" fill="#ffca56"/>
  <rect x="8" y="17" width="1" height="1" fill="#ffca56"/>
  <rect x="9" y="17" width="1" height="1" fill="#ffcb54"/>
  <rect x="10" y="17" width="1" height="1" fill="#ad6f45"/>
  <rect x="11" y="17" width="1" height="1" fill="#628ca0"/>
  <rect x="12" y="17" width="1" height="1" fill="#92acba"/>
  <rect x="13" y="17" width="1" height="1" fill="#90aeb5"/>
  <rect x="14" y="17" width="1" height="1" fill="#c8e7e8"/>
  <rect x="15" y="17" width="1" height="1" fill="#96adad"/>
  <rect x="16" y="17" width="1" height="1" fill="#c7e7e8"/>
  <rect x="17" y="17" width="1" height="1" fill="#d38d52"/>
  <rect x="18" y="17" width="1" height="1" fill="#d58d4d"/>
  <rect x="19" y="17" width="1" height="1" fill="#f3c25e"/>
  <rect x="20" y="17" width="1" height="1" fill="#3e272f"/>
  <rect x="4" y="18" width="1" height="1" fill="#a07864"/>
  <rect x="5" y="18" width="1" height="1" fill="#fec962"/>
  <rect x="6" y="18" width="1" height="1" fill="#ffca56"/>
  <rect x="7" y="18" width="1" height="1" fill="#ffca54"/>
  <rect x="8" y="18" width="1" height="1" fill="#ffcb54"/>
  <rect x="9" y="18" width="1" height="1" fill="#ffcb54"/>
  <rect x="10" y="18" width="1" height="1" fill="#8c502e"/>
  <rect x="11" y="18" width="1" height="1" fill="#648e9b"/>
  <rect x="12" y="18" width="1" height="1" fill="#698b9e"/>
  <rect x="13" y="18" width="1" height="1" fill="#6b89a0"/>
  <rect x="14" y="18" width="1" height="1" fill="#c5e6e8"/>
  <rect x="15" y="18" width="1" height="1" fill="#93acb6"/>
  <rect x="16" y="18" width="1" height="1" fill="#c7e7e8"/>
  <rect x="17" y="18" width="1" height="1" fill="#d38d52"/>
  <rect x="18" y="18" width="1" height="1" fill="#d58d4d"/>
  <rect x="19" y="18" width="1" height="1" fill="#ecc55e"/>
  <rect x="20" y="18" width="1" height="1" fill="#3e272f"/>
  <rect x="5" y="19" width="1" height="1" fill="#ae7047"/>
  <rect x="6" y="19" width="1" height="1" fill="#ffca54"/>
  <rect x="7" y="19" width="1" height="1" fill="#ffcb54"/>
  <rect x="8" y="19" width="1" height="1" fill="#ffcb54"/>
  <rect x="9" y="19" width="1" height="1" fill="#ffcb54"/>
  <rect x="10" y="19" width="1" height="1" fill="#88503a"/>
  <rect x="11" y="19" width="1" height="1" fill="#648d9c"/>
  <rect x="12" y="19" width="1" height="1" fill="#668ba1"/>
  <rect x="13" y="19" width="1" height="1" fill="#688aa1"/>
  <rect x="14" y="19" width="1" height="1" fill="#aaccd2"/>
  <rect x="15" y="19" width="1" height="1" fill="#688da0"/>
  <rect x="16" y="19" width="1" height="1" fill="#c6e7e9"/>
  <rect x="17" y="19" width="1" height="1" fill="#d38d52"/>
  <rect x="18" y="19" width="1" height="1" fill="#d38e4d"/>
  <rect x="19" y="19" width="1" height="1" fill="#ebc65e"/>
  <rect x="20" y="19" width="1" height="1" fill="#3e272f"/>
  <rect x="6" y="20" width="1" height="1" fill="#ac7242"/>
  <rect x="7" y="20" width="1" height="1" fill="#fecb57"/>
  <rect x="8" y="20" width="1" height="1" fill="#ffcb54"/>
  <rect x="9" y="20" width="1" height="1" fill="#ffca59"/>
  <rect x="10" y="20" width="1" height="1" fill="#412623"/>
  <rect x="11" y="20" width="1" height="1" fill="#678c9b"/>
  <rect x="12" y="20" width="1" height="1" fill="#668c9f"/>
  <rect x="13" y="20" width="1" height="1" fill="#688b9d"/>
  <rect x="14" y="20" width="1" height="1" fill="#a9cbd0"/>
  <rect x="15" y="20" width="1" height="1" fill="#668899"/>
  <rect x="16" y="20" width="1" height="1" fill="#abcdca"/>
  <rect x="17" y="20" width="1" height="1" fill="#d78b51"/>
  <rect x="18" y="20" width="1" height="1" fill="#d98a4e"/>
  <rect x="19" y="20" width="1" height="1" fill="#d78c4f"/>
  <rect x="20" y="20" width="1" height="1" fill="#3e272f"/>
  <rect x="7" y="21" width="1" height="1" fill="#a97348"/>
  <rect x="8" y="21" width="1" height="1" fill="#ffcb54"/>
  <rect x="9" y="21" width="1" height="1" fill="#f9cc5f"/>
  <rect x="10" y="21" width="1" height="1" fill="#47202d"/>
  <rect x="11" y="21" width="1" height="1" fill="#3f2140"/>
  <rect x="12" y="21" width="1" height="1" fill="#668d96"/>
  <rect x="13" y="21" width="1" height="1" fill="#678d94"/>
  <rect x="14" y="21" width="1" height="1" fill="#abcad1"/>
  <rect x="15" y="21" width="1" height="1" fill="#6a8087"/>
  <rect x="16" y="21" width="1" height="1" fill="#adcccd"/>
  <rect x="17" y="21" width="1" height="1" fill="#3b282f"/>
  <rect x="18" y="21" width="1" height="1" fill="#40272d"/>
  <rect x="19" y="21" width="1" height="1" fill="#3e272d"/>
  <rect x="20" y="21" width="1" height="1" fill="#3d272d"/>
  <rect x="8" y="22" width="1" height="1" fill="#ac6e57"/>
  <rect x="9" y="22" width="1" height="1" fill="#d19243"/>
  <rect x="10" y="22" width="1" height="1" fill="#41242e"/>
  <rect x="12" y="22" width="1" height="1" fill="#3c2838"/>
  <rect x="13" y="22" width="1" height="1" fill="#3f263b"/>
  <rect x="14" y="22" width="1" height="1" fill="#afcac6"/>
  <rect x="15" y="22" width="1" height="1" fill="#6f797e"/>
  <rect x="16" y="22" width="1" height="1" fill="#402631"/>
  <rect x="17" y="22" width="1" height="1" fill="#40262f"/>
  <rect x="9" y="23" width="1" height="1" fill="#a47250"/>
  <rect x="10" y="23" width="1" height="1" fill="#38282d"/>
  <rect x="14" y="23" width="1" height="1" fill="#3a2a2e"/>
  <rect x="15" y="23" width="1" height="1" fill="#3a2b2e"/>
</svg>