<svg width="32" height="32" viewBox="0 0 32 32" fill="none" xmlns="http://www.w3.org/2000/svg">
<g clip-path="url(#clip0_1128_5158)">
<path d="M1.52 9.14005H30.48V28.9501H32V3.05005H30.48V7.62005H1.52V3.05005H0V28.9501H1.52V9.14005Z" fill="#000001"/>
<path d="M30.48 28.95H1.52002V30.48H30.48V28.95Z" fill="#000001"/>
<path d="M4.57001 12.19V25.91H27.43V12.19H4.57001ZM13.71 19.81H12.19V21.33H10.67V22.86H9.14001V21.33H10.67V19.81H12.19V18.29H10.67V16.76H9.14001V15.24H10.67V16.76H12.19V18.29H13.71V19.81ZM22.86 19.81H16.76V18.29H22.86V19.81Z" fill="#000001"/>
<path d="M10.67 4.57001H9.14001V6.10001H10.67V4.57001Z" fill="#000001"/>
<path d="M7.61998 4.57001H6.09998V6.10001H7.61998V4.57001Z" fill="#000001"/>
<path d="M4.56999 4.57001H3.04999V6.10001H4.56999V4.57001Z" fill="#000001"/>
<path d="M30.48 1.52002H1.52002V3.05002H30.48V1.52002Z" fill="#000001"/>
</g>
<defs>
<clipPath id="clip0_1128_5158">
<rect width="32" height="32" fill="white"/>
</clipPath>
</defs>
</svg>
