<svg width="24" height="24" xmlns="http://www.w3.org/2000/svg">
  <rect x="7" y="0" width="1" height="1" fill="#545456"/>
  <rect x="8" y="0" width="1" height="1" fill="#545357"/>
  <rect x="9" y="0" width="1" height="1" fill="#54535a"/>
  <rect x="10" y="0" width="1" height="1" fill="#545358"/>
  <rect x="11" y="0" width="1" height="1" fill="#545358"/>
  <rect x="12" y="0" width="1" height="1" fill="#545358"/>
  <rect x="13" y="0" width="1" height="1" fill="#0c0b0e"/>
  <rect x="14" y="0" width="1" height="1" fill="#010101"/>
  <rect x="15" y="0" width="1" height="1" fill="#010101"/>
  <rect x="16" y="0" width="1" height="1" fill="#1b1b1b"/>
  <rect x="4" y="1" width="1" height="1" fill="#545456"/>
  <rect x="5" y="1" width="1" height="1" fill="#545358"/>
  <rect x="6" y="1" width="1" height="1" fill="#545358"/>
  <rect x="7" y="1" width="1" height="1" fill="#54535b"/>
  <rect x="8" y="1" width="1" height="1" fill="#72787e"/>
  <rect x="9" y="1" width="1" height="1" fill="#70797e"/>
  <rect x="10" y="1" width="1" height="1" fill="#aab5b7"/>
  <rect x="11" y="1" width="1" height="1" fill="#72787e"/>
  <rect x="12" y="1" width="1" height="1" fill="#73777f"/>
  <rect x="13" y="1" width="1" height="1" fill="#727782"/>
  <rect x="14" y="1" width="1" height="1" fill="#6f7885"/>
  <rect x="15" y="1" width="1" height="1" fill="#656a73"/>
  <rect x="16" y="1" width="1" height="1" fill="#4f565b"/>
  <rect x="17" y="1" width="1" height="1" fill="#4d5657"/>
  <rect x="18" y="1" width="1" height="1" fill="#010101"/>
  <rect x="19" y="1" width="1" height="1" fill="#010101"/>
  <rect x="3" y="2" width="1" height="1" fill="#525457"/>
  <rect x="4" y="2" width="1" height="1" fill="#545456"/>
  <rect x="5" y="2" width="1" height="1" fill="#545358"/>
  <rect x="6" y="2" width="1" height="1" fill="#56515d"/>
  <rect x="7" y="2" width="1" height="1" fill="#7197a3"/>
  <rect x="8" y="2" width="1" height="1" fill="#a9b3ba"/>
  <rect x="9" y="2" width="1" height="1" fill="#f1fcff"/>
  <rect x="10" y="2" width="1" height="1" fill="#f1fcfe"/>
  <rect x="11" y="2" width="1" height="1" fill="#aeb4b2"/>
  <rect x="12" y="2" width="1" height="1" fill="#a2b4bb"/>
  <rect x="13" y="2" width="1" height="1" fill="#7998a8"/>
  <rect x="14" y="2" width="1" height="1" fill="#7394a6"/>
  <rect x="15" y="2" width="1" height="1" fill="#7892a6"/>
  <rect x="16" y="2" width="1" height="1" fill="#758a97"/>
  <rect x="17" y="2" width="1" height="1" fill="#4f5659"/>
  <rect x="18" y="2" width="1" height="1" fill="#545454"/>
  <rect x="19" y="2" width="1" height="1" fill="#545454"/>
  <rect x="20" y="2" width="1" height="1" fill="#000002"/>
  <rect x="2" y="3" width="1" height="1" fill="#5b5d61"/>
  <rect x="3" y="3" width="1" height="1" fill="#74797d"/>
  <rect x="4" y="3" width="1" height="1" fill="#50555b"/>
  <rect x="5" y="3" width="1" height="1" fill="#7895a5"/>
  <rect x="6" y="3" width="1" height="1" fill="#aab3bb"/>
  <rect x="7" y="3" width="1" height="1" fill="#c9dfe5"/>
  <rect x="8" y="3" width="1" height="1" fill="#d2dce1"/>
  <rect x="9" y="3" width="1" height="1" fill="#abb6b9"/>
  <rect x="10" y="3" width="1" height="1" fill="#abb7b9"/>
  <rect x="11" y="3" width="1" height="1" fill="#f2fcfd"/>
  <rect x="12" y="3" width="1" height="1" fill="#cddde3"/>
  <rect x="13" y="3" width="1" height="1" fill="#7e9fb0"/>
  <rect x="14" y="3" width="1" height="1" fill="#a9c3cc"/>
  <rect x="15" y="3" width="1" height="1" fill="#bfcfd4"/>
  <rect x="16" y="3" width="1" height="1" fill="#9eb2c3"/>
  <rect x="17" y="3" width="1" height="1" fill="#7495a8"/>
  <rect x="18" y="3" width="1" height="1" fill="#366776"/>
  <rect x="19" y="3" width="1" height="1" fill="#787682"/>
  <rect x="20" y="3" width="1" height="1" fill="#78777c"/>
  <rect x="21" y="3" width="1" height="1" fill="#000000"/>
  <rect x="2" y="4" width="1" height="1" fill="#63656c"/>
  <rect x="3" y="4" width="1" height="1" fill="#979da3"/>
  <rect x="4" y="4" width="1" height="1" fill="#6b7078"/>
  <rect x="5" y="4" width="1" height="1" fill="#7196aa"/>
  <rect x="6" y="4" width="1" height="1" fill="#c5d5da"/>
  <rect x="7" y="4" width="1" height="1" fill="#e7f7fa"/>
  <rect x="8" y="4" width="1" height="1" fill="#e9f5f9"/>
  <rect x="9" y="4" width="1" height="1" fill="#c8d4d8"/>
  <rect x="10" y="4" width="1" height="1" fill="#a9b7b9"/>
  <rect x="11" y="4" width="1" height="1" fill="#b9c7cc"/>
  <rect x="12" y="4" width="1" height="1" fill="#b2bec4"/>
  <rect x="13" y="4" width="1" height="1" fill="#9db1b7"/>
  <rect x="14" y="4" width="1" height="1" fill="#bcccd0"/>
  <rect x="15" y="4" width="1" height="1" fill="#cfd9d9"/>
  <rect x="16" y="4" width="1" height="1" fill="#c0ced7"/>
  <rect x="17" y="4" width="1" height="1" fill="#96b1c4"/>
  <rect x="18" y="4" width="1" height="1" fill="#598a9d"/>
  <rect x="19" y="4" width="1" height="1" fill="#757782"/>
  <rect x="20" y="4" width="1" height="1" fill="#5b5a62"/>
  <rect x="21" y="4" width="1" height="1" fill="#000000"/>
  <rect x="2" y="5" width="1" height="1" fill="#5e6269"/>
  <rect x="3" y="5" width="1" height="1" fill="#85909a"/>
  <rect x="4" y="5" width="1" height="1" fill="#85969a"/>
  <rect x="5" y="5" width="1" height="1" fill="#9cc2cb"/>
  <rect x="6" y="5" width="1" height="1" fill="#cce1e6"/>
  <rect x="7" y="5" width="1" height="1" fill="#cdd4dc"/>
  <rect x="8" y="5" width="1" height="1" fill="#ddedf0"/>
  <rect x="9" y="5" width="1" height="1" fill="#d1dde2"/>
  <rect x="10" y="5" width="1" height="1" fill="#becacf"/>
  <rect x="11" y="5" width="1" height="1" fill="#bfcbd0"/>
  <rect x="12" y="5" width="1" height="1" fill="#bec9cf"/>
  <rect x="13" y="5" width="1" height="1" fill="#aeb7ba"/>
  <rect x="14" y="5" width="1" height="1" fill="#bac0c3"/>
  <rect x="15" y="5" width="1" height="1" fill="#b4bbc1"/>
  <rect x="16" y="5" width="1" height="1" fill="#9ca1a8"/>
  <rect x="17" y="5" width="1" height="1" fill="#788389"/>
  <rect x="18" y="5" width="1" height="1" fill="#626d7e"/>
  <rect x="19" y="5" width="1" height="1" fill="#67616d"/>
  <rect x="20" y="5" width="1" height="1" fill="#525356"/>
  <rect x="21" y="5" width="1" height="1" fill="#010102"/>
  <rect x="2" y="6" width="1" height="1" fill="#4c6970"/>
  <rect x="3" y="6" width="1" height="1" fill="#6f838e"/>
  <rect x="4" y="6" width="1" height="1" fill="#8c9ea4"/>
  <rect x="5" y="6" width="1" height="1" fill="#b7d6d9"/>
  <rect x="6" y="6" width="1" height="1" fill="#c9e5e8"/>
  <rect x="7" y="6" width="1" height="1" fill="#b1c3c8"/>
  <rect x="8" y="6" width="1" height="1" fill="#cbe1e4"/>
  <rect x="9" y="6" width="1" height="1" fill="#cde2e4"/>
  <rect x="10" y="6" width="1" height="1" fill="#bcd0d3"/>
  <rect x="11" y="6" width="1" height="1" fill="#c0d0d4"/>
  <rect x="12" y="6" width="1" height="1" fill="#b3bfc5"/>
  <rect x="13" y="6" width="1" height="1" fill="#a0a7ae"/>
  <rect x="14" y="6" width="1" height="1" fill="#9a9ca4"/>
  <rect x="15" y="6" width="1" height="1" fill="#868790"/>
  <rect x="16" y="6" width="1" height="1" fill="#696971"/>
  <rect x="17" y="6" width="1" height="1" fill="#505660"/>
  <rect x="18" y="6" width="1" height="1" fill="#455e6d"/>
  <rect x="19" y="6" width="1" height="1" fill="#57505b"/>
  <rect x="20" y="6" width="1" height="1" fill="#656f77"/>
  <rect x="21" y="6" width="1" height="1" fill="#000103"/>
  <rect x="2" y="7" width="1" height="1" fill="#3d7d8c"/>
  <rect x="3" y="7" width="1" height="1" fill="#78979f"/>
  <rect x="4" y="7" width="1" height="1" fill="#717f88"/>
  <rect x="5" y="7" width="1" height="1" fill="#97aeb4"/>
  <rect x="6" y="7" width="1" height="1" fill="#c5e4ea"/>
  <rect x="7" y="7" width="1" height="1" fill="#c6e0e2"/>
  <rect x="8" y="7" width="1" height="1" fill="#c5dfe1"/>
  <rect x="9" y="7" width="1" height="1" fill="#c8dfe1"/>
  <rect x="10" y="7" width="1" height="1" fill="#95abad"/>
  <rect x="11" y="7" width="1" height="1" fill="#99a9ad"/>
  <rect x="12" y="7" width="1" height="1" fill="#6e7a7f"/>
  <rect x="13" y="7" width="1" height="1" fill="#72777f"/>
  <rect x="14" y="7" width="1" height="1" fill="#606069"/>
  <rect x="15" y="7" width="1" height="1" fill="#4e5562"/>
  <rect x="16" y="7" width="1" height="1" fill="#485967"/>
  <rect x="17" y="7" width="1" height="1" fill="#4b6070"/>
  <rect x="18" y="7" width="1" height="1" fill="#327179"/>
  <rect x="19" y="7" width="1" height="1" fill="#4e5a61"/>
  <rect x="20" y="7" width="1" height="1" fill="#9fb6c0"/>
  <rect x="21" y="7" width="1" height="1" fill="#000001"/>
  <rect x="2" y="8" width="1" height="1" fill="#488191"/>
  <rect x="3" y="8" width="1" height="1" fill="#95b7bf"/>
  <rect x="4" y="8" width="1" height="1" fill="#cde4ea"/>
  <rect x="5" y="8" width="1" height="1" fill="#c9e7ed"/>
  <rect x="6" y="8" width="1" height="1" fill="#97b6bf"/>
  <rect x="7" y="8" width="1" height="1" fill="#6a7c85"/>
  <rect x="8" y="8" width="1" height="1" fill="#70777f"/>
  <rect x="9" y="8" width="1" height="1" fill="#717881"/>
  <rect x="10" y="8" width="1" height="1" fill="#717881"/>
  <rect x="11" y="8" width="1" height="1" fill="#717880"/>
  <rect x="12" y="8" width="1" height="1" fill="#717880"/>
  <rect x="13" y="8" width="1" height="1" fill="#565760"/>
  <rect x="14" y="8" width="1" height="1" fill="#53525c"/>
  <rect x="15" y="8" width="1" height="1" fill="#435f70"/>
  <rect x="16" y="8" width="1" height="1" fill="#377788"/>
  <rect x="17" y="8" width="1" height="1" fill="#6a9ca5"/>
  <rect x="18" y="8" width="1" height="1" fill="#7196a7"/>
  <rect x="19" y="8" width="1" height="1" fill="#7497a9"/>
  <rect x="20" y="8" width="1" height="1" fill="#c9e7e6"/>
  <rect x="21" y="8" width="1" height="1" fill="#000100"/>
  <rect x="2" y="9" width="1" height="1" fill="#789fa7"/>
  <rect x="3" y="9" width="1" height="1" fill="#9cb2be"/>
  <rect x="4" y="9" width="1" height="1" fill="#f9ffff"/>
  <rect x="5" y="9" width="1" height="1" fill="#c7e7e8"/>
  <rect x="6" y="9" width="1" height="1" fill="#c6e7ea"/>
  <rect x="7" y="9" width="1" height="1" fill="#90b3c2"/>
  <rect x="8" y="9" width="1" height="1" fill="#aacacb"/>
  <rect x="9" y="9" width="1" height="1" fill="#abcbcc"/>
  <rect x="10" y="9" width="1" height="1" fill="#abcbcc"/>
  <rect x="11" y="9" width="1" height="1" fill="#abcbcc"/>
  <rect x="12" y="9" width="1" height="1" fill="#abcbcc"/>
  <rect x="13" y="9" width="1" height="1" fill="#afc9cc"/>
  <rect x="14" y="9" width="1" height="1" fill="#a0b6bd"/>
  <rect x="15" y="9" width="1" height="1" fill="#86a5ac"/>
  <rect x="16" y="9" width="1" height="1" fill="#6d9ba2"/>
  <rect x="17" y="9" width="1" height="1" fill="#6c9aa9"/>
  <rect x="18" y="9" width="1" height="1" fill="#7497a8"/>
  <rect x="19" y="9" width="1" height="1" fill="#92b4bf"/>
  <rect x="20" y="9" width="1" height="1" fill="#c8e4e9"/>
  <rect x="21" y="9" width="1" height="1" fill="#000100"/>
  <rect x="2" y="10" width="1" height="1" fill="#7d9caa"/>
  <rect x="3" y="10" width="1" height="1" fill="#a2aec0"/>
  <rect x="4" y="10" width="1" height="1" fill="#f6ffff"/>
  <rect x="5" y="10" width="1" height="1" fill="#c8e7e3"/>
  <rect x="6" y="10" width="1" height="1" fill="#b9d9da"/>
  <rect x="7" y="10" width="1" height="1" fill="#97adb3"/>
  <rect x="8" y="10" width="1" height="1" fill="#96acb1"/>
  <rect x="9" y="10" width="1" height="1" fill="#aecace"/>
  <rect x="10" y="10" width="1" height="1" fill="#abcbce"/>
  <rect x="11" y="10" width="1" height="1" fill="#bbd9dd"/>
  <rect x="12" y="10" width="1" height="1" fill="#aecacc"/>
  <rect x="13" y="10" width="1" height="1" fill="#98b2b5"/>
  <rect x="14" y="10" width="1" height="1" fill="#97adb1"/>
  <rect x="15" y="10" width="1" height="1" fill="#99adae"/>
  <rect x="16" y="10" width="1" height="1" fill="#91aab1"/>
  <rect x="17" y="10" width="1" height="1" fill="#7097a9"/>
  <rect x="18" y="10" width="1" height="1" fill="#7297aa"/>
  <rect x="19" y="10" width="1" height="1" fill="#97b4c1"/>
  <rect x="20" y="10" width="1" height="1" fill="#a2b0bb"/>
  <rect x="21" y="10" width="1" height="1" fill="#000001"/>
  <rect x="3" y="11" width="1" height="1" fill="#7695a4"/>
  <rect x="4" y="11" width="1" height="1" fill="#feffff"/>
  <rect x="5" y="11" width="1" height="1" fill="#feffff"/>
  <rect x="6" y="11" width="1" height="1" fill="#b9d9da"/>
  <rect x="7" y="11" width="1" height="1" fill="#b1c8ce"/>
  <rect x="8" y="11" width="1" height="1" fill="#adcbcf"/>
  <rect x="9" y="11" width="1" height="1" fill="#97abb2"/>
  <rect x="10" y="11" width="1" height="1" fill="#b5dcdd"/>
  <rect x="11" y="11" width="1" height="1" fill="#a9cbce"/>
  <rect x="12" y="11" width="1" height="1" fill="#abcbce"/>
  <rect x="13" y="11" width="1" height="1" fill="#7a999c"/>
  <rect x="14" y="11" width="1" height="1" fill="#739195"/>
  <rect x="15" y="11" width="1" height="1" fill="#829c9f"/>
  <rect x="16" y="11" width="1" height="1" fill="#9babae"/>
  <rect x="17" y="11" width="1" height="1" fill="#96acb0"/>
  <rect x="18" y="11" width="1" height="1" fill="#7297aa"/>
  <rect x="19" y="11" width="1" height="1" fill="#c6e6ef"/>
  <rect x="20" y="11" width="1" height="1" fill="#020000"/>
  <rect x="3" y="12" width="1" height="1" fill="#7197a4"/>
  <rect x="4" y="12" width="1" height="1" fill="#d0e4e2"/>
  <rect x="5" y="12" width="1" height="1" fill="#fffeff"/>
  <rect x="6" y="12" width="1" height="1" fill="#c8e8e9"/>
  <rect x="7" y="12" width="1" height="1" fill="#94adb0"/>
  <rect x="8" y="12" width="1" height="1" fill="#adcccd"/>
  <rect x="9" y="12" width="1" height="1" fill="#aecacc"/>
  <rect x="10" y="12" width="1" height="1" fill="#afcbcd"/>
  <rect x="11" y="12" width="1" height="1" fill="#769095"/>
  <rect x="12" y="12" width="1" height="1" fill="#769095"/>
  <rect x="13" y="12" width="1" height="1" fill="#a7c3c7"/>
  <rect x="14" y="12" width="1" height="1" fill="#afcbcf"/>
  <rect x="15" y="12" width="1" height="1" fill="#afcbcf"/>
  <rect x="16" y="12" width="1" height="1" fill="#afcbcf"/>
  <rect x="17" y="12" width="1" height="1" fill="#adcbd0"/>
  <rect x="18" y="12" width="1" height="1" fill="#96b3c4"/>
  <rect x="19" y="12" width="1" height="1" fill="#96b4c2"/>
  <rect x="20" y="12" width="1" height="1" fill="#000000"/>
  <rect x="3" y="13" width="1" height="1" fill="#6e98a7"/>
  <rect x="4" y="13" width="1" height="1" fill="#9ab4bf"/>
  <rect x="5" y="13" width="1" height="1" fill="#f9ffff"/>
  <rect x="6" y="13" width="1" height="1" fill="#b7dbdd"/>
  <rect x="7" y="13" width="1" height="1" fill="#b5dcdd"/>
  <rect x="8" y="13" width="1" height="1" fill="#accccf"/>
  <rect x="9" y="13" width="1" height="1" fill="#94abb0"/>
  <rect x="10" y="13" width="1" height="1" fill="#96acaf"/>
  <rect x="11" y="13" width="1" height="1" fill="#adc8cc"/>
  <rect x="12" y="13" width="1" height="1" fill="#accace"/>
  <rect x="13" y="13" width="1" height="1" fill="#b6d6d9"/>
  <rect x="14" y="13" width="1" height="1" fill="#b6d8db"/>
  <rect x="15" y="13" width="1" height="1" fill="#b3d3d6"/>
  <rect x="16" y="13" width="1" height="1" fill="#adcccf"/>
  <rect x="17" y="13" width="1" height="1" fill="#adcccf"/>
  <rect x="18" y="13" width="1" height="1" fill="#c7e6ef"/>
  <rect x="19" y="13" width="1" height="1" fill="#96b4c5"/>
  <rect x="20" y="13" width="1" height="1" fill="#000000"/>
  <rect x="3" y="14" width="1" height="1" fill="#32717e"/>
  <rect x="4" y="14" width="1" height="1" fill="#98b6bc"/>
  <rect x="5" y="14" width="1" height="1" fill="#b6dada"/>
  <rect x="6" y="14" width="1" height="1" fill="#b5dcdd"/>
  <rect x="7" y="14" width="1" height="1" fill="#b4dddd"/>
  <rect x="8" y="14" width="1" height="1" fill="#96adb4"/>
  <rect x="9" y="14" width="1" height="1" fill="#afcbce"/>
  <rect x="10" y="14" width="1" height="1" fill="#94adaf"/>
  <rect x="11" y="14" width="1" height="1" fill="#adc8cb"/>
  <rect x="12" y="14" width="1" height="1" fill="#bdd9dd"/>
  <rect x="13" y="14" width="1" height="1" fill="#b7dadc"/>
  <rect x="14" y="14" width="1" height="1" fill="#add1d3"/>
  <rect x="15" y="14" width="1" height="1" fill="#a1bfc4"/>
  <rect x="16" y="14" width="1" height="1" fill="#8fa5ad"/>
  <rect x="17" y="14" width="1" height="1" fill="#657e83"/>
  <rect x="18" y="14" width="1" height="1" fill="#c7e8ef"/>
  <rect x="19" y="14" width="1" height="1" fill="#7695a5"/>
  <rect x="20" y="14" width="1" height="1" fill="#000000"/>
  <rect x="3" y="15" width="1" height="1" fill="#2d7286"/>
  <rect x="4" y="15" width="1" height="1" fill="#9bb4c2"/>
  <rect x="5" y="15" width="1" height="1" fill="#b3dbde"/>
  <rect x="6" y="15" width="1" height="1" fill="#b5dcdd"/>
  <rect x="7" y="15" width="1" height="1" fill="#b5dcde"/>
  <rect x="8" y="15" width="1" height="1" fill="#788d95"/>
  <rect x="9" y="15" width="1" height="1" fill="#93adaf"/>
  <rect x="10" y="15" width="1" height="1" fill="#798e97"/>
  <rect x="11" y="15" width="1" height="1" fill="#778f95"/>
  <rect x="12" y="15" width="1" height="1" fill="#769095"/>
  <rect x="13" y="15" width="1" height="1" fill="#93a7ae"/>
  <rect x="14" y="15" width="1" height="1" fill="#98a9b1"/>
  <rect x="15" y="15" width="1" height="1" fill="#98aab2"/>
  <rect x="16" y="15" width="1" height="1" fill="#90a4ad"/>
  <rect x="17" y="15" width="1" height="1" fill="#687c85"/>
  <rect x="18" y="15" width="1" height="1" fill="#94b3c1"/>
  <rect x="19" y="15" width="1" height="1" fill="#6e98af"/>
  <rect x="20" y="15" width="1" height="1" fill="#010200"/>
  <rect x="4" y="16" width="1" height="1" fill="#356f80"/>
  <rect x="5" y="16" width="1" height="1" fill="#99b3c1"/>
  <rect x="6" y="16" width="1" height="1" fill="#c0e4e6"/>
  <rect x="7" y="16" width="1" height="1" fill="#c0e4e7"/>
  <rect x="8" y="16" width="1" height="1" fill="#798e97"/>
  <rect x="9" y="16" width="1" height="1" fill="#97adb0"/>
  <rect x="10" y="16" width="1" height="1" fill="#97adb1"/>
  <rect x="11" y="16" width="1" height="1" fill="#97adb3"/>
  <rect x="12" y="16" width="1" height="1" fill="#769095"/>
  <rect x="13" y="16" width="1" height="1" fill="#768f96"/>
  <rect x="14" y="16" width="1" height="1" fill="#768e94"/>
  <rect x="15" y="16" width="1" height="1" fill="#788e95"/>
  <rect x="16" y="16" width="1" height="1" fill="#768c94"/>
  <rect x="17" y="16" width="1" height="1" fill="#687c87"/>
  <rect x="18" y="16" width="1" height="1" fill="#6d798a"/>
  <rect x="19" y="16" width="1" height="1" fill="#00010c"/>
  <rect x="4" y="17" width="1" height="1" fill="#297581"/>
  <rect x="5" y="17" width="1" height="1" fill="#96afbb"/>
  <rect x="6" y="17" width="1" height="1" fill="#99b8c0"/>
  <rect x="7" y="17" width="1" height="1" fill="#c7e7e9"/>
  <rect x="8" y="17" width="1" height="1" fill="#94a8b0"/>
  <rect x="9" y="17" width="1" height="1" fill="#97abb0"/>
  <rect x="10" y="17" width="1" height="1" fill="#98adb1"/>
  <rect x="11" y="17" width="1" height="1" fill="#97adb2"/>
  <rect x="12" y="17" width="1" height="1" fill="#96abb1"/>
  <rect x="13" y="17" width="1" height="1" fill="#7a939a"/>
  <rect x="14" y="17" width="1" height="1" fill="#85a2a6"/>
  <rect x="15" y="17" width="1" height="1" fill="#93acb3"/>
  <rect x="16" y="17" width="1" height="1" fill="#8ea3b2"/>
  <rect x="17" y="17" width="1" height="1" fill="#697a85"/>
  <rect x="18" y="17" width="1" height="1" fill="#37393c"/>
  <rect x="19" y="17" width="1" height="1" fill="#020100"/>
  <rect x="4" y="18" width="1" height="1" fill="#03272a"/>
  <rect x="5" y="18" width="1" height="1" fill="#636f74"/>
  <rect x="6" y="18" width="1" height="1" fill="#96b1b6"/>
  <rect x="7" y="18" width="1" height="1" fill="#aac1cc"/>
  <rect x="8" y="18" width="1" height="1" fill="#7f989e"/>
  <rect x="9" y="18" width="1" height="1" fill="#80989d"/>
  <rect x="10" y="18" width="1" height="1" fill="#97adb4"/>
  <rect x="11" y="18" width="1" height="1" fill="#98acb3"/>
  <rect x="12" y="18" width="1" height="1" fill="#9aacb3"/>
  <rect x="13" y="18" width="1" height="1" fill="#7b939b"/>
  <rect x="14" y="18" width="1" height="1" fill="#88a3a7"/>
  <rect x="15" y="18" width="1" height="1" fill="#95aeb0"/>
  <rect x="16" y="18" width="1" height="1" fill="#949daa"/>
  <rect x="17" y="18" width="1" height="1" fill="#5d5d6a"/>
  <rect x="18" y="18" width="1" height="1" fill="#353334"/>
  <rect x="19" y="18" width="1" height="1" fill="#020100"/>
  <rect x="4" y="19" width="1" height="1" fill="#000000"/>
  <rect x="5" y="19" width="1" height="1" fill="#4f5456"/>
  <rect x="6" y="19" width="1" height="1" fill="#84969b"/>
  <rect x="7" y="19" width="1" height="1" fill="#99afbf"/>
  <rect x="8" y="19" width="1" height="1" fill="#869fa9"/>
  <rect x="9" y="19" width="1" height="1" fill="#778f99"/>
  <rect x="10" y="19" width="1" height="1" fill="#889ea6"/>
  <rect x="11" y="19" width="1" height="1" fill="#889ea6"/>
  <rect x="12" y="19" width="1" height="1" fill="#889ea6"/>
  <rect x="13" y="19" width="1" height="1" fill="#7d929f"/>
  <rect x="14" y="19" width="1" height="1" fill="#7e94a0"/>
  <rect x="15" y="19" width="1" height="1" fill="#7d8f95"/>
  <rect x="16" y="19" width="1" height="1" fill="#767b82"/>
  <rect x="17" y="19" width="1" height="1" fill="#585159"/>
  <rect x="18" y="19" width="1" height="1" fill="#343334"/>
  <rect x="19" y="19" width="1" height="1" fill="#020001"/>
  <rect x="4" y="20" width="1" height="1" fill="#28272a"/>
  <rect x="5" y="20" width="1" height="1" fill="#4b4c53"/>
  <rect x="6" y="20" width="1" height="1" fill="#717881"/>
  <rect x="7" y="20" width="1" height="1" fill="#97aeb4"/>
  <rect x="8" y="20" width="1" height="1" fill="#99afb6"/>
  <rect x="9" y="20" width="1" height="1" fill="#80969f"/>
  <rect x="10" y="20" width="1" height="1" fill="#758992"/>
  <rect x="11" y="20" width="1" height="1" fill="#758a90"/>
  <rect x="12" y="20" width="1" height="1" fill="#667b80"/>
  <rect x="13" y="20" width="1" height="1" fill="#6e7c89"/>
  <rect x="14" y="20" width="1" height="1" fill="#656f81"/>
  <rect x="15" y="20" width="1" height="1" fill="#5a606c"/>
  <rect x="16" y="20" width="1" height="1" fill="#525359"/>
  <rect x="17" y="20" width="1" height="1" fill="#4d4d51"/>
  <rect x="18" y="20" width="1" height="1" fill="#28282a"/>
  <rect x="19" y="20" width="1" height="1" fill="#2a282a"/>
  <rect x="5" y="21" width="1" height="1" fill="#343438"/>
  <rect x="6" y="21" width="1" height="1" fill="#73787b"/>
  <rect x="7" y="21" width="1" height="1" fill="#9aabac"/>
  <rect x="8" y="21" width="1" height="1" fill="#97acaf"/>
  <rect x="9" y="21" width="1" height="1" fill="#9aabb1"/>
  <rect x="10" y="21" width="1" height="1" fill="#6f7a84"/>
  <rect x="11" y="21" width="1" height="1" fill="#747980"/>
  <rect x="12" y="21" width="1" height="1" fill="#31353b"/>
  <rect x="13" y="21" width="1" height="1" fill="#363539"/>
  <rect x="14" y="21" width="1" height="1" fill="#373338"/>
  <rect x="15" y="21" width="1" height="1" fill="#414043"/>
  <rect x="16" y="21" width="1" height="1" fill="#505054"/>
  <rect x="17" y="21" width="1" height="1" fill="#353638"/>
  <rect x="18" y="21" width="1" height="1" fill="#000001"/>
  <rect x="6" y="22" width="1" height="1" fill="#000201"/>
  <rect x="7" y="22" width="1" height="1" fill="#000003"/>
  <rect x="8" y="22" width="1" height="1" fill="#98aaaa"/>
  <rect x="9" y="22" width="1" height="1" fill="#9aacaf"/>
  <rect x="10" y="22" width="1" height="1" fill="#767880"/>
  <rect x="11" y="22" width="1" height="1" fill="#525356"/>
  <rect x="12" y="22" width="1" height="1" fill="#333335"/>
  <rect x="13" y="22" width="1" height="1" fill="#343436"/>
  <rect x="14" y="22" width="1" height="1" fill="#353435"/>
  <rect x="15" y="22" width="1" height="1" fill="#1f2020"/>
  <rect x="16" y="22" width="1" height="1" fill="#000100"/>
  <rect x="17" y="22" width="1" height="1" fill="#000201"/>
  <rect x="8" y="23" width="1" height="1" fill="#000100"/>
  <rect x="9" y="23" width="1" height="1" fill="#010300"/>
  <rect x="10" y="23" width="1" height="1" fill="#000200"/>
  <rect x="11" y="23" width="1" height="1" fill="#000201"/>
  <rect x="12" y="23" width="1" height="1" fill="#010101"/>
  <rect x="13" y="23" width="1" height="1" fill="#010101"/>
  <rect x="14" y="23" width="1" height="1" fill="#010101"/>
  <rect x="15" y="23" width="1" height="1" fill="#464646"/>
</svg>