<svg width="24" height="24" xmlns="http://www.w3.org/2000/svg">
  <rect x="11" y="1" width="1" height="1" fill="#d36f2d"/>
  <rect x="12" y="1" width="1" height="1" fill="#d36f2d"/>
  <rect x="10" y="2" width="1" height="1" fill="#d36f2d"/>
  <rect x="11" y="2" width="1" height="1" fill="#ffe28f"/>
  <rect x="12" y="2" width="1" height="1" fill="#ffe28f"/>
  <rect x="13" y="2" width="1" height="1" fill="#d36f2d"/>
  <rect x="10" y="3" width="1" height="1" fill="#d36f2d"/>
  <rect x="11" y="3" width="1" height="1" fill="#ffce41"/>
  <rect x="12" y="3" width="1" height="1" fill="#ffce41"/>
  <rect x="13" y="3" width="1" height="1" fill="#d36f2d"/>
  <rect x="10" y="4" width="1" height="1" fill="#904d3b"/>
  <rect x="11" y="4" width="1" height="1" fill="#ffce41"/>
  <rect x="12" y="4" width="1" height="1" fill="#ffce41"/>
  <rect x="13" y="4" width="1" height="1" fill="#904d3b"/>
  <rect x="6" y="5" width="1" height="1" fill="#b52d1b"/>
  <rect x="7" y="5" width="1" height="1" fill="#b52d1b"/>
  <rect x="11" y="5" width="1" height="1" fill="#904d3b"/>
  <rect x="12" y="5" width="1" height="1" fill="#904d3b"/>
  <rect x="16" y="5" width="1" height="1" fill="#1f994e"/>
  <rect x="17" y="5" width="1" height="1" fill="#1f994e"/>
  <rect x="5" y="6" width="1" height="1" fill="#b52d1b"/>
  <rect x="6" y="6" width="1" height="1" fill="#ff6f62"/>
  <rect x="7" y="6" width="1" height="1" fill="#ff6f62"/>
  <rect x="8" y="6" width="1" height="1" fill="#b52d1b"/>
  <rect x="11" y="6" width="1" height="1" fill="#d36f2d"/>
  <rect x="12" y="6" width="1" height="1" fill="#d36f2d"/>
  <rect x="15" y="6" width="1" height="1" fill="#1f994e"/>
  <rect x="16" y="6" width="1" height="1" fill="#87e42e"/>
  <rect x="17" y="6" width="1" height="1" fill="#87e42e"/>
  <rect x="18" y="6" width="1" height="1" fill="#1f994e"/>
  <rect x="5" y="7" width="1" height="1" fill="#b52d1b"/>
  <rect x="6" y="7" width="1" height="1" fill="#e94335"/>
  <rect x="7" y="7" width="1" height="1" fill="#e94335"/>
  <rect x="8" y="7" width="1" height="1" fill="#b52d1b"/>
  <rect x="10" y="7" width="1" height="1" fill="#d36f2d"/>
  <rect x="11" y="7" width="1" height="1" fill="#ffe28f"/>
  <rect x="12" y="7" width="1" height="1" fill="#ffe28f"/>
  <rect x="13" y="7" width="1" height="1" fill="#d36f2d"/>
  <rect x="15" y="7" width="1" height="1" fill="#1f994e"/>
  <rect x="16" y="7" width="1" height="1" fill="#5ecb38"/>
  <rect x="17" y="7" width="1" height="1" fill="#5ecb38"/>
  <rect x="18" y="7" width="1" height="1" fill="#1f994e"/>
  <rect x="5" y="8" width="1" height="1" fill="#73172d"/>
  <rect x="6" y="8" width="1" height="1" fill="#e94335"/>
  <rect x="7" y="8" width="1" height="1" fill="#e94335"/>
  <rect x="8" y="8" width="1" height="1" fill="#73172d"/>
  <rect x="10" y="8" width="1" height="1" fill="#d36f2d"/>
  <rect x="11" y="8" width="1" height="1" fill="#ffce41"/>
  <rect x="12" y="8" width="1" height="1" fill="#ffce41"/>
  <rect x="13" y="8" width="1" height="1" fill="#d36f2d"/>
  <rect x="15" y="8" width="1" height="1" fill="#237947"/>
  <rect x="16" y="8" width="1" height="1" fill="#5ecb38"/>
  <rect x="17" y="8" width="1" height="1" fill="#5ecb38"/>
  <rect x="18" y="8" width="1" height="1" fill="#237947"/>
  <rect x="1" y="9" width="1" height="1" fill="#2668bc"/>
  <rect x="2" y="9" width="1" height="1" fill="#2668bc"/>
  <rect x="5" y="9" width="1" height="1" fill="#73172d"/>
  <rect x="6" y="9" width="1" height="1" fill="#e94335"/>
  <rect x="7" y="9" width="1" height="1" fill="#e94335"/>
  <rect x="8" y="9" width="1" height="1" fill="#73172d"/>
  <rect x="10" y="9" width="1" height="1" fill="#d36f2d"/>
  <rect x="11" y="9" width="1" height="1" fill="#ffce41"/>
  <rect x="12" y="9" width="1" height="1" fill="#ffce41"/>
  <rect x="13" y="9" width="1" height="1" fill="#d36f2d"/>
  <rect x="16" y="9" width="1" height="1" fill="#265c42"/>
  <rect x="17" y="9" width="1" height="1" fill="#265c42"/>
  <rect x="21" y="9" width="1" height="1" fill="#2668bc"/>
  <rect x="22" y="9" width="1" height="1" fill="#2668bc"/>
  <rect x="0" y="10" width="1" height="1" fill="#2668bc"/>
  <rect x="1" y="10" width="1" height="1" fill="#28a8ea"/>
  <rect x="2" y="10" width="1" height="1" fill="#28a8ea"/>
  <rect x="3" y="10" width="1" height="1" fill="#2668bc"/>
  <rect x="5" y="10" width="1" height="1" fill="#73172d"/>
  <rect x="6" y="10" width="1" height="1" fill="#e94335"/>
  <rect x="7" y="10" width="1" height="1" fill="#e94335"/>
  <rect x="8" y="10" width="1" height="1" fill="#73172d"/>
  <rect x="10" y="10" width="1" height="1" fill="#d36f2d"/>
  <rect x="11" y="10" width="1" height="1" fill="#ffce41"/>
  <rect x="12" y="10" width="1" height="1" fill="#ffce41"/>
  <rect x="13" y="10" width="1" height="1" fill="#d36f2d"/>
  <rect x="16" y="10" width="1" height="1" fill="#237947"/>
  <rect x="17" y="10" width="1" height="1" fill="#237947"/>
  <rect x="20" y="10" width="1" height="1" fill="#2668bc"/>
  <rect x="21" y="10" width="1" height="1" fill="#28a8ea"/>
  <rect x="22" y="10" width="1" height="1" fill="#28a8ea"/>
  <rect x="23" y="10" width="1" height="1" fill="#2668bc"/>
  <rect x="0" y="11" width="1" height="1" fill="#2753af"/>
  <rect x="1" y="11" width="1" height="1" fill="#1884db"/>
  <rect x="2" y="11" width="1" height="1" fill="#1884db"/>
  <rect x="3" y="11" width="1" height="1" fill="#2753af"/>
  <rect x="5" y="11" width="1" height="1" fill="#73172d"/>
  <rect x="6" y="11" width="1" height="1" fill="#b52d1b"/>
  <rect x="7" y="11" width="1" height="1" fill="#b52d1b"/>
  <rect x="8" y="11" width="1" height="1" fill="#73172d"/>
  <rect x="10" y="11" width="1" height="1" fill="#d36f2d"/>
  <rect x="11" y="11" width="1" height="1" fill="#ffce41"/>
  <rect x="12" y="11" width="1" height="1" fill="#ffce41"/>
  <rect x="13" y="11" width="1" height="1" fill="#d36f2d"/>
  <rect x="15" y="11" width="1" height="1" fill="#237947"/>
  <rect x="16" y="11" width="1" height="1" fill="#5ecb38"/>
  <rect x="17" y="11" width="1" height="1" fill="#5ecb38"/>
  <rect x="18" y="11" width="1" height="1" fill="#237947"/>
  <rect x="20" y="11" width="1" height="1" fill="#2753af"/>
  <rect x="21" y="11" width="1" height="1" fill="#1884db"/>
  <rect x="22" y="11" width="1" height="1" fill="#1884db"/>
  <rect x="23" y="11" width="1" height="1" fill="#2753af"/>
  <rect x="0" y="12" width="1" height="1" fill="#2753af"/>
  <rect x="1" y="12" width="1" height="1" fill="#1884db"/>
  <rect x="2" y="12" width="1" height="1" fill="#1884db"/>
  <rect x="3" y="12" width="1" height="1" fill="#2753af"/>
  <rect x="5" y="12" width="1" height="1" fill="#73172d"/>
  <rect x="6" y="12" width="1" height="1" fill="#b52d1b"/>
  <rect x="7" y="12" width="1" height="1" fill="#b52d1b"/>
  <rect x="8" y="12" width="1" height="1" fill="#73172d"/>
  <rect x="10" y="12" width="1" height="1" fill="#904d3b"/>
  <rect x="11" y="12" width="1" height="1" fill="#f9a31b"/>
  <rect x="12" y="12" width="1" height="1" fill="#f9a31b"/>
  <rect x="13" y="12" width="1" height="1" fill="#904d3b"/>
  <rect x="15" y="12" width="1" height="1" fill="#237947"/>
  <rect x="16" y="12" width="1" height="1" fill="#5ecb38"/>
  <rect x="17" y="12" width="1" height="1" fill="#5ecb38"/>
  <rect x="18" y="12" width="1" height="1" fill="#237947"/>
  <rect x="20" y="12" width="1" height="1" fill="#2753af"/>
  <rect x="21" y="12" width="1" height="1" fill="#1884db"/>
  <rect x="22" y="12" width="1" height="1" fill="#1884db"/>
  <rect x="23" y="12" width="1" height="1" fill="#2753af"/>
  <rect x="1" y="13" width="1" height="1" fill="#17426a"/>
  <rect x="2" y="13" width="1" height="1" fill="#17426a"/>
  <rect x="6" y="13" width="1" height="1" fill="#73172d"/>
  <rect x="7" y="13" width="1" height="1" fill="#73172d"/>
  <rect x="10" y="13" width="1" height="1" fill="#904d3b"/>
  <rect x="11" y="13" width="1" height="1" fill="#f9a31b"/>
  <rect x="12" y="13" width="1" height="1" fill="#f9a31b"/>
  <rect x="13" y="13" width="1" height="1" fill="#904d3b"/>
  <rect x="15" y="13" width="1" height="1" fill="#237947"/>
  <rect x="16" y="13" width="1" height="1" fill="#5ecb38"/>
  <rect x="17" y="13" width="1" height="1" fill="#5ecb38"/>
  <rect x="18" y="13" width="1" height="1" fill="#237947"/>
  <rect x="21" y="13" width="1" height="1" fill="#17426a"/>
  <rect x="22" y="13" width="1" height="1" fill="#17426a"/>
  <rect x="6" y="14" width="1" height="1" fill="#73172d"/>
  <rect x="7" y="14" width="1" height="1" fill="#73172d"/>
  <rect x="10" y="14" width="1" height="1" fill="#904d3b"/>
  <rect x="11" y="14" width="1" height="1" fill="#f9a31b"/>
  <rect x="12" y="14" width="1" height="1" fill="#f9a31b"/>
  <rect x="13" y="14" width="1" height="1" fill="#904d3b"/>
  <rect x="15" y="14" width="1" height="1" fill="#237947"/>
  <rect x="16" y="14" width="1" height="1" fill="#1f994e"/>
  <rect x="17" y="14" width="1" height="1" fill="#1f994e"/>
  <rect x="18" y="14" width="1" height="1" fill="#237947"/>
  <rect x="5" y="15" width="1" height="1" fill="#73172d"/>
  <rect x="6" y="15" width="1" height="1" fill="#e94335"/>
  <rect x="7" y="15" width="1" height="1" fill="#e94335"/>
  <rect x="8" y="15" width="1" height="1" fill="#73172d"/>
  <rect x="10" y="15" width="1" height="1" fill="#904d3b"/>
  <rect x="11" y="15" width="1" height="1" fill="#f9a31b"/>
  <rect x="12" y="15" width="1" height="1" fill="#f9a31b"/>
  <rect x="13" y="15" width="1" height="1" fill="#904d3b"/>
  <rect x="15" y="15" width="1" height="1" fill="#265c42"/>
  <rect x="16" y="15" width="1" height="1" fill="#1f994e"/>
  <rect x="17" y="15" width="1" height="1" fill="#1f994e"/>
  <rect x="18" y="15" width="1" height="1" fill="#265c42"/>
  <rect x="5" y="16" width="1" height="1" fill="#73172d"/>
  <rect x="6" y="16" width="1" height="1" fill="#b52d1b"/>
  <rect x="7" y="16" width="1" height="1" fill="#b52d1b"/>
  <rect x="8" y="16" width="1" height="1" fill="#73172d"/>
  <rect x="10" y="16" width="1" height="1" fill="#904d3b"/>
  <rect x="11" y="16" width="1" height="1" fill="#f9a31b"/>
  <rect x="12" y="16" width="1" height="1" fill="#f9a31b"/>
  <rect x="13" y="16" width="1" height="1" fill="#904d3b"/>
  <rect x="15" y="16" width="1" height="1" fill="#265c42"/>
  <rect x="16" y="16" width="1" height="1" fill="#1f994e"/>
  <rect x="17" y="16" width="1" height="1" fill="#1f994e"/>
  <rect x="18" y="16" width="1" height="1" fill="#265c42"/>
  <rect x="5" y="17" width="1" height="1" fill="#73172d"/>
  <rect x="6" y="17" width="1" height="1" fill="#b52d1b"/>
  <rect x="7" y="17" width="1" height="1" fill="#b52d1b"/>
  <rect x="8" y="17" width="1" height="1" fill="#73172d"/>
  <rect x="11" y="17" width="1" height="1" fill="#904d3b"/>
  <rect x="12" y="17" width="1" height="1" fill="#904d3b"/>
  <rect x="15" y="17" width="1" height="1" fill="#265c42"/>
  <rect x="16" y="17" width="1" height="1" fill="#1f994e"/>
  <rect x="17" y="17" width="1" height="1" fill="#1f994e"/>
  <rect x="18" y="17" width="1" height="1" fill="#265c42"/>
  <rect x="6" y="18" width="1" height="1" fill="#73172d"/>
  <rect x="7" y="18" width="1" height="1" fill="#73172d"/>
  <rect x="11" y="18" width="1" height="1" fill="#d36f2d"/>
  <rect x="12" y="18" width="1" height="1" fill="#d36f2d"/>
  <rect x="16" y="18" width="1" height="1" fill="#265c42"/>
  <rect x="17" y="18" width="1" height="1" fill="#265c42"/>
  <rect x="10" y="19" width="1" height="1" fill="#904d3b"/>
  <rect x="11" y="19" width="1" height="1" fill="#ffd07a"/>
  <rect x="12" y="19" width="1" height="1" fill="#ffd07a"/>
  <rect x="13" y="19" width="1" height="1" fill="#904d3b"/>
  <rect x="10" y="20" width="1" height="1" fill="#904d3b"/>
  <rect x="11" y="20" width="1" height="1" fill="#f9a31b"/>
  <rect x="12" y="20" width="1" height="1" fill="#f9a31b"/>
  <rect x="13" y="20" width="1" height="1" fill="#904d3b"/>
  <rect x="10" y="21" width="1" height="1" fill="#904d3b"/>
  <rect x="11" y="21" width="1" height="1" fill="#f9a31b"/>
  <rect x="12" y="21" width="1" height="1" fill="#f9a31b"/>
  <rect x="13" y="21" width="1" height="1" fill="#904d3b"/>
  <rect x="11" y="22" width="1" height="1" fill="#904d3b"/>
  <rect x="12" y="22" width="1" height="1" fill="#904d3b"/>
</svg>