<svg width="24" height="24" xmlns="http://www.w3.org/2000/svg">
  <rect x="5" y="3" width="1" height="1" fill="#75003c"/>
  <rect x="6" y="3" width="1" height="1" fill="#75003c"/>
  <rect x="7" y="3" width="1" height="1" fill="#75003c"/>
  <rect x="8" y="3" width="1" height="1" fill="#75003c"/>
  <rect x="15" y="3" width="1" height="1" fill="#17426a"/>
  <rect x="16" y="3" width="1" height="1" fill="#17426a"/>
  <rect x="17" y="3" width="1" height="1" fill="#17426a"/>
  <rect x="18" y="3" width="1" height="1" fill="#17426a"/>
  <rect x="3" y="4" width="1" height="1" fill="#75003c"/>
  <rect x="4" y="4" width="1" height="1" fill="#75003c"/>
  <rect x="5" y="4" width="1" height="1" fill="#ff781e"/>
  <rect x="6" y="4" width="1" height="1" fill="#ff781e"/>
  <rect x="7" y="4" width="1" height="1" fill="#ff781e"/>
  <rect x="8" y="4" width="1" height="1" fill="#ff781e"/>
  <rect x="9" y="4" width="1" height="1" fill="#75003c"/>
  <rect x="10" y="4" width="1" height="1" fill="#75003c"/>
  <rect x="13" y="4" width="1" height="1" fill="#17426a"/>
  <rect x="14" y="4" width="1" height="1" fill="#17426a"/>
  <rect x="15" y="4" width="1" height="1" fill="#52c4ff"/>
  <rect x="16" y="4" width="1" height="1" fill="#52c4ff"/>
  <rect x="17" y="4" width="1" height="1" fill="#52c4ff"/>
  <rect x="18" y="4" width="1" height="1" fill="#52c4ff"/>
  <rect x="19" y="4" width="1" height="1" fill="#17426a"/>
  <rect x="20" y="4" width="1" height="1" fill="#17426a"/>
  <rect x="2" y="5" width="1" height="1" fill="#75003c"/>
  <rect x="3" y="5" width="1" height="1" fill="#af2031"/>
  <rect x="4" y="5" width="1" height="1" fill="#ff781e"/>
  <rect x="5" y="5" width="1" height="1" fill="#e74036"/>
  <rect x="6" y="5" width="1" height="1" fill="#e74036"/>
  <rect x="7" y="5" width="1" height="1" fill="#e74036"/>
  <rect x="8" y="5" width="1" height="1" fill="#e74036"/>
  <rect x="9" y="5" width="1" height="1" fill="#ff781e"/>
  <rect x="10" y="5" width="1" height="1" fill="#af2031"/>
  <rect x="11" y="5" width="1" height="1" fill="#75003c"/>
  <rect x="12" y="5" width="1" height="1" fill="#17426a"/>
  <rect x="13" y="5" width="1" height="1" fill="#52c4ff"/>
  <rect x="14" y="5" width="1" height="1" fill="#52c4ff"/>
  <rect x="15" y="5" width="1" height="1" fill="#1884db"/>
  <rect x="16" y="5" width="1" height="1" fill="#1884db"/>
  <rect x="17" y="5" width="1" height="1" fill="#1884db"/>
  <rect x="18" y="5" width="1" height="1" fill="#1884db"/>
  <rect x="19" y="5" width="1" height="1" fill="#1884db"/>
  <rect x="20" y="5" width="1" height="1" fill="#0a6bd0"/>
  <rect x="21" y="5" width="1" height="1" fill="#17426a"/>
  <rect x="2" y="6" width="1" height="1" fill="#75003c"/>
  <rect x="3" y="6" width="1" height="1" fill="#e74036"/>
  <rect x="4" y="6" width="1" height="1" fill="#e74036"/>
  <rect x="5" y="6" width="1" height="1" fill="#e74036"/>
  <rect x="6" y="6" width="1" height="1" fill="#e74036"/>
  <rect x="7" y="6" width="1" height="1" fill="#e74036"/>
  <rect x="8" y="6" width="1" height="1" fill="#e74036"/>
  <rect x="9" y="6" width="1" height="1" fill="#e74036"/>
  <rect x="10" y="6" width="1" height="1" fill="#e74036"/>
  <rect x="11" y="6" width="1" height="1" fill="#af2031"/>
  <rect x="12" y="6" width="1" height="1" fill="#52c4ff"/>
  <rect x="13" y="6" width="1" height="1" fill="#1884db"/>
  <rect x="14" y="6" width="1" height="1" fill="#1884db"/>
  <rect x="15" y="6" width="1" height="1" fill="#1884db"/>
  <rect x="16" y="6" width="1" height="1" fill="#1884db"/>
  <rect x="17" y="6" width="1" height="1" fill="#1884db"/>
  <rect x="18" y="6" width="1" height="1" fill="#1884db"/>
  <rect x="19" y="6" width="1" height="1" fill="#1884db"/>
  <rect x="20" y="6" width="1" height="1" fill="#1884db"/>
  <rect x="21" y="6" width="1" height="1" fill="#17426a"/>
  <rect x="1" y="7" width="1" height="1" fill="#75003c"/>
  <rect x="2" y="7" width="1" height="1" fill="#e74036"/>
  <rect x="3" y="7" width="1" height="1" fill="#e74036"/>
  <rect x="4" y="7" width="1" height="1" fill="#e74036"/>
  <rect x="5" y="7" width="1" height="1" fill="#e74036"/>
  <rect x="6" y="7" width="1" height="1" fill="#1e1d1f"/>
  <rect x="7" y="7" width="1" height="1" fill="#1e1d1f"/>
  <rect x="8" y="7" width="1" height="1" fill="#1e1d1f"/>
  <rect x="9" y="7" width="1" height="1" fill="#e74036"/>
  <rect x="10" y="7" width="1" height="1" fill="#af2031"/>
  <rect x="11" y="7" width="1" height="1" fill="#52c4ff"/>
  <rect x="12" y="7" width="1" height="1" fill="#1884db"/>
  <rect x="13" y="7" width="1" height="1" fill="#1884db"/>
  <rect x="14" y="7" width="1" height="1" fill="#1884db"/>
  <rect x="15" y="7" width="1" height="1" fill="#1e1d1f"/>
  <rect x="16" y="7" width="1" height="1" fill="#1e1d1f"/>
  <rect x="17" y="7" width="1" height="1" fill="#1e1d1f"/>
  <rect x="18" y="7" width="1" height="1" fill="#0a6bd0"/>
  <rect x="19" y="7" width="1" height="1" fill="#1884db"/>
  <rect x="20" y="7" width="1" height="1" fill="#1884db"/>
  <rect x="21" y="7" width="1" height="1" fill="#0a6bd0"/>
  <rect x="22" y="7" width="1" height="1" fill="#17426a"/>
  <rect x="1" y="8" width="1" height="1" fill="#75003c"/>
  <rect x="2" y="8" width="1" height="1" fill="#e74036"/>
  <rect x="3" y="8" width="1" height="1" fill="#e74036"/>
  <rect x="4" y="8" width="1" height="1" fill="#e74036"/>
  <rect x="5" y="8" width="1" height="1" fill="#1e1d1f"/>
  <rect x="9" y="8" width="1" height="1" fill="#1e1d1f"/>
  <rect x="10" y="8" width="1" height="1" fill="#1884db"/>
  <rect x="11" y="8" width="1" height="1" fill="#1884db"/>
  <rect x="12" y="8" width="1" height="1" fill="#1884db"/>
  <rect x="13" y="8" width="1" height="1" fill="#1884db"/>
  <rect x="14" y="8" width="1" height="1" fill="#1e1d1f"/>
  <rect x="18" y="8" width="1" height="1" fill="#1e1d1f"/>
  <rect x="19" y="8" width="1" height="1" fill="#1884db"/>
  <rect x="20" y="8" width="1" height="1" fill="#1884db"/>
  <rect x="21" y="8" width="1" height="1" fill="#1884db"/>
  <rect x="22" y="8" width="1" height="1" fill="#17426a"/>
  <rect x="1" y="9" width="1" height="1" fill="#1e1d1f"/>
  <rect x="2" y="9" width="1" height="1" fill="#e74036"/>
  <rect x="3" y="9" width="1" height="1" fill="#e74036"/>
  <rect x="4" y="9" width="1" height="1" fill="#e74036"/>
  <rect x="5" y="9" width="1" height="1" fill="#1e1d1f"/>
  <rect x="8" y="9" width="1" height="1" fill="#ad4428"/>
  <rect x="9" y="9" width="1" height="1" fill="#ad4428"/>
  <rect x="10" y="9" width="1" height="1" fill="#ad4428"/>
  <rect x="11" y="9" width="1" height="1" fill="#1884db"/>
  <rect x="12" y="9" width="1" height="1" fill="#1884db"/>
  <rect x="13" y="9" width="1" height="1" fill="#1e1d1f"/>
  <rect x="18" y="9" width="1" height="1" fill="#17426a"/>
  <rect x="19" y="9" width="1" height="1" fill="#1884db"/>
  <rect x="20" y="9" width="1" height="1" fill="#1884db"/>
  <rect x="21" y="9" width="1" height="1" fill="#1884db"/>
  <rect x="22" y="9" width="1" height="1" fill="#1e1d1f"/>
  <rect x="1" y="10" width="1" height="1" fill="#1e1d1f"/>
  <rect x="2" y="10" width="1" height="1" fill="#af2031"/>
  <rect x="3" y="10" width="1" height="1" fill="#e74036"/>
  <rect x="4" y="10" width="1" height="1" fill="#e74036"/>
  <rect x="5" y="10" width="1" height="1" fill="#1e1d1f"/>
  <rect x="7" y="10" width="1" height="1" fill="#ad4428"/>
  <rect x="8" y="10" width="1" height="1" fill="#ffe78e"/>
  <rect x="9" y="10" width="1" height="1" fill="#ffe78e"/>
  <rect x="10" y="10" width="1" height="1" fill="#ffce41"/>
  <rect x="11" y="10" width="1" height="1" fill="#ad4428"/>
  <rect x="12" y="10" width="1" height="1" fill="#1e1d1f"/>
  <rect x="18" y="10" width="1" height="1" fill="#17426a"/>
  <rect x="19" y="10" width="1" height="1" fill="#1884db"/>
  <rect x="20" y="10" width="1" height="1" fill="#1884db"/>
  <rect x="21" y="10" width="1" height="1" fill="#0a6bd0"/>
  <rect x="22" y="10" width="1" height="1" fill="#1e1d1f"/>
  <rect x="2" y="11" width="1" height="1" fill="#1e1d1f"/>
  <rect x="3" y="11" width="1" height="1" fill="#e74036"/>
  <rect x="4" y="11" width="1" height="1" fill="#e74036"/>
  <rect x="5" y="11" width="1" height="1" fill="#e74036"/>
  <rect x="6" y="11" width="1" height="1" fill="#ad4428"/>
  <rect x="7" y="11" width="1" height="1" fill="#ffce41"/>
  <rect x="8" y="11" width="1" height="1" fill="#ffce41"/>
  <rect x="9" y="11" width="1" height="1" fill="#ffce41"/>
  <rect x="10" y="11" width="1" height="1" fill="#ffce41"/>
  <rect x="11" y="11" width="1" height="1" fill="#5e1521"/>
  <rect x="17" y="11" width="1" height="1" fill="#17426a"/>
  <rect x="18" y="11" width="1" height="1" fill="#52c4ff"/>
  <rect x="19" y="11" width="1" height="1" fill="#1884db"/>
  <rect x="20" y="11" width="1" height="1" fill="#1884db"/>
  <rect x="21" y="11" width="1" height="1" fill="#1e1d1f"/>
  <rect x="2" y="12" width="1" height="1" fill="#1e1d1f"/>
  <rect x="3" y="12" width="1" height="1" fill="#af2031"/>
  <rect x="4" y="12" width="1" height="1" fill="#e74036"/>
  <rect x="5" y="12" width="1" height="1" fill="#af2031"/>
  <rect x="6" y="12" width="1" height="1" fill="#f9a31b"/>
  <rect x="7" y="12" width="1" height="1" fill="#f9a31b"/>
  <rect x="8" y="12" width="1" height="1" fill="#ffce41"/>
  <rect x="9" y="12" width="1" height="1" fill="#ffce41"/>
  <rect x="10" y="12" width="1" height="1" fill="#5e1521"/>
  <rect x="16" y="12" width="1" height="1" fill="#17426a"/>
  <rect x="17" y="12" width="1" height="1" fill="#52c4ff"/>
  <rect x="18" y="12" width="1" height="1" fill="#1884db"/>
  <rect x="19" y="12" width="1" height="1" fill="#1884db"/>
  <rect x="20" y="12" width="1" height="1" fill="#0a6bd0"/>
  <rect x="21" y="12" width="1" height="1" fill="#1e1d1f"/>
  <rect x="3" y="13" width="1" height="1" fill="#1e1d1f"/>
  <rect x="4" y="13" width="1" height="1" fill="#af2031"/>
  <rect x="5" y="13" width="1" height="1" fill="#f9a31b"/>
  <rect x="6" y="13" width="1" height="1" fill="#f9a31b"/>
  <rect x="7" y="13" width="1" height="1" fill="#f9a31b"/>
  <rect x="8" y="13" width="1" height="1" fill="#f9a31b"/>
  <rect x="9" y="13" width="1" height="1" fill="#5e1521"/>
  <rect x="15" y="13" width="1" height="1" fill="#17426a"/>
  <rect x="16" y="13" width="1" height="1" fill="#52c4ff"/>
  <rect x="17" y="13" width="1" height="1" fill="#1884db"/>
  <rect x="18" y="13" width="1" height="1" fill="#1884db"/>
  <rect x="19" y="13" width="1" height="1" fill="#1884db"/>
  <rect x="20" y="13" width="1" height="1" fill="#1e1d1f"/>
  <rect x="4" y="14" width="1" height="1" fill="#1e1d1f"/>
  <rect x="5" y="14" width="1" height="1" fill="#f9a31b"/>
  <rect x="6" y="14" width="1" height="1" fill="#f9a31b"/>
  <rect x="7" y="14" width="1" height="1" fill="#f9a31b"/>
  <rect x="8" y="14" width="1" height="1" fill="#ad4428"/>
  <rect x="9" y="14" width="1" height="1" fill="#0b492b"/>
  <rect x="14" y="14" width="1" height="1" fill="#17426a"/>
  <rect x="15" y="14" width="1" height="1" fill="#0a6bd0"/>
  <rect x="16" y="14" width="1" height="1" fill="#1884db"/>
  <rect x="17" y="14" width="1" height="1" fill="#1884db"/>
  <rect x="18" y="14" width="1" height="1" fill="#1884db"/>
  <rect x="19" y="14" width="1" height="1" fill="#1e1d1f"/>
  <rect x="5" y="15" width="1" height="1" fill="#1e1d1f"/>
  <rect x="6" y="15" width="1" height="1" fill="#f9a31b"/>
  <rect x="7" y="15" width="1" height="1" fill="#ad4428"/>
  <rect x="8" y="15" width="1" height="1" fill="#1f994e"/>
  <rect x="9" y="15" width="1" height="1" fill="#1f994e"/>
  <rect x="10" y="15" width="1" height="1" fill="#265c42"/>
  <rect x="13" y="15" width="1" height="1" fill="#265c42"/>
  <rect x="14" y="15" width="1" height="1" fill="#87e42e"/>
  <rect x="15" y="15" width="1" height="1" fill="#5ecb38"/>
  <rect x="16" y="15" width="1" height="1" fill="#0a6bd0"/>
  <rect x="17" y="15" width="1" height="1" fill="#1884db"/>
  <rect x="18" y="15" width="1" height="1" fill="#1e1d1f"/>
  <rect x="6" y="16" width="1" height="1" fill="#1e1d1f"/>
  <rect x="7" y="16" width="1" height="1" fill="#1f994e"/>
  <rect x="8" y="16" width="1" height="1" fill="#1f994e"/>
  <rect x="9" y="16" width="1" height="1" fill="#5ecb38"/>
  <rect x="10" y="16" width="1" height="1" fill="#5ecb38"/>
  <rect x="11" y="16" width="1" height="1" fill="#265c42"/>
  <rect x="12" y="16" width="1" height="1" fill="#265c42"/>
  <rect x="13" y="16" width="1" height="1" fill="#87e42e"/>
  <rect x="14" y="16" width="1" height="1" fill="#5ecb38"/>
  <rect x="15" y="16" width="1" height="1" fill="#5ecb38"/>
  <rect x="16" y="16" width="1" height="1" fill="#5ecb38"/>
  <rect x="17" y="16" width="1" height="1" fill="#1e1d1f"/>
  <rect x="7" y="17" width="1" height="1" fill="#1e1d1f"/>
  <rect x="8" y="17" width="1" height="1" fill="#5ecb38"/>
  <rect x="9" y="17" width="1" height="1" fill="#5ecb38"/>
  <rect x="10" y="17" width="1" height="1" fill="#5ecb38"/>
  <rect x="11" y="17" width="1" height="1" fill="#87e42e"/>
  <rect x="12" y="17" width="1" height="1" fill="#87e42e"/>
  <rect x="13" y="17" width="1" height="1" fill="#5ecb38"/>
  <rect x="14" y="17" width="1" height="1" fill="#5ecb38"/>
  <rect x="15" y="17" width="1" height="1" fill="#5ecb38"/>
  <rect x="16" y="17" width="1" height="1" fill="#1e1d1f"/>
  <rect x="8" y="18" width="1" height="1" fill="#1e1d1f"/>
  <rect x="9" y="18" width="1" height="1" fill="#5ecb38"/>
  <rect x="10" y="18" width="1" height="1" fill="#5ecb38"/>
  <rect x="11" y="18" width="1" height="1" fill="#5ecb38"/>
  <rect x="12" y="18" width="1" height="1" fill="#5ecb38"/>
  <rect x="13" y="18" width="1" height="1" fill="#5ecb38"/>
  <rect x="14" y="18" width="1" height="1" fill="#5ecb38"/>
  <rect x="15" y="18" width="1" height="1" fill="#1e1d1f"/>
  <rect x="9" y="19" width="1" height="1" fill="#1e1d1f"/>
  <rect x="10" y="19" width="1" height="1" fill="#5ecb38"/>
  <rect x="11" y="19" width="1" height="1" fill="#5ecb38"/>
  <rect x="12" y="19" width="1" height="1" fill="#5ecb38"/>
  <rect x="13" y="19" width="1" height="1" fill="#5ecb38"/>
  <rect x="14" y="19" width="1" height="1" fill="#1e1d1f"/>
  <rect x="10" y="20" width="1" height="1" fill="#1e1d1f"/>
  <rect x="11" y="20" width="1" height="1" fill="#5ecb38"/>
  <rect x="12" y="20" width="1" height="1" fill="#5ecb38"/>
  <rect x="13" y="20" width="1" height="1" fill="#1e1d1f"/>
  <rect x="11" y="21" width="1" height="1" fill="#1e1d1f"/>
  <rect x="12" y="21" width="1" height="1" fill="#1e1d1f"/>
</svg>