<svg width="24" height="24" xmlns="[http://www.w3.org/2000/svg]()">
<rect x="10" y="1" width="4" height="1" fill="#546E7A"/>
<rect x="9" y="2" width="6" height="1" fill="#546E7A"/>
<rect x="4" y="3" width="16" height="1" fill="#37474F"/>
<rect x="3" y="4" width="18" height="1" fill="#546E7A"/>
<rect x="4" y="5" width="1" height="16" fill="#37474F"/> <rect x="19" y="5" width="1" height="16" fill="#37474F"/> <rect x="5" y="5" width="14" height="16" fill="#CFD8DC"/> <rect x="6" y="5" width="1" height="16" fill="#90A4AE"/> <rect x="8" y="5" width="1" height="16" fill="#90A4AE"/> <rect x="10" y="5" width="1" height="16" fill="#90A4AE"/> <rect x="12" y="5" width="1" height="16" fill="#90A4AE"/> <rect x="14" y="5" width="1" height="16" fill="#90A4AE"/> <rect x="16" y="5" width="1" height="16" fill="#90A4AE"/> <rect x="18" y="5" width="1" height="16" fill="#90A4AE"/> <rect x="7" y="5" width="2" height="1" fill="#FFFFFF"/>
<rect x="11" y="5" width="1" height="1" fill="#FFFFFF"/>
<rect x="15" y="5" width="2" height="1" fill="#FFFFFF"/>
<rect x="6" y="6" width="3" height="1" fill="#FFFFFF"/>
<rect x="10" y="6" width="2" height="1" fill="#FFFFFF"/>
<rect x="14" y="6" width="3" height="1" fill="#FFFFFF"/>
<rect x="7" y="7" width="2" height="1" fill="#FFFFFF"/>
<rect x="11" y="7" width="3" height="1" fill="#FFFFFF"/>
<rect x="15" y="7" width="1" height="1" fill="#FFFFFF"/>
<rect x="8" y="8" width="1" height="1" fill="#FFFFFF"/>
<rect x="12" y="8" width="2" height="1" fill="#FFFFFF"/>
<rect x="4" y="21" width="16" height="1" fill="#546E7A"/>
<rect x="5" y="22" width="14" height="1" fill="#37474F"/>
</svg>